<?xml version="1.0" encoding="utf-8"?>
<!-- Generator: Adobe Illustrator 16.2.0, SVG Export Plug-In . SVG Version: 6.00 Build 0)  -->
<!DOCTYPE svg PUBLIC "-//W3C//DTD SVG 1.1//EN" "http://www.w3.org/Graphics/SVG/1.1/DTD/svg11.dtd">
<svg version="1.1" id="Слой_2" xmlns="http://www.w3.org/2000/svg" xmlns:xlink="http://www.w3.org/1999/xlink" x="0px" y="0px"
	 width="512px" height="512px" viewBox="0 0 512 512" enable-background="new 0 0 512 512" xml:space="preserve">
<g>
	<path d="M448,32h-21.5V0h-84v32h-22.501H192.001H171V0H87v32H64C28.703,32,0,60.719,0,96v32.001v287.998V448
		c0,35.281,28.703,64,64,64h128.001h127.998H448c35.297,0,64-28.719,64-64v-32.001V128.001V96C512,60.719,483.297,32,448,32z
		 M435.167,459.834h-358V179.167h358V459.834z"/>
	<rect x="256.167" y="281.6" width="128.333" height="127.567"/>
</g>
</svg>
