<?xml version="1.0" encoding="iso-8859-1"?>
<!-- Generator: Adobe Illustrator 16.2.0, SVG Export Plug-In . SVG Version: 6.00 Build 0)  -->
<!DOCTYPE svg PUBLIC "-//W3C//DTD SVG 1.1//EN" "http://www.w3.org/Graphics/SVG/1.1/DTD/svg11.dtd">
<svg version="1.1" id="&#x421;&#x43B;&#x43E;&#x439;_1"
	 xmlns="http://www.w3.org/2000/svg" xmlns:xlink="http://www.w3.org/1999/xlink" x="0px" y="0px" width="192px" height="192px"
	 viewBox="0 0 192 192" style="enable-background:new 0 0 192 192;" xml:space="preserve">
<g>
	<g>
		<path d="M64,52c0,6.6-5.4,12-12,12H32c-6.6,0-12-5.4-12-12V32c0-6.6,5.4-12,12-12h20c6.6,0,12,5.4,12,12V52z"/>
	</g>
	<g>
		<path d="M118,52c0,6.6-5.4,12-12,12H86c-6.6,0-12-5.4-12-12V32c0-6.6,5.4-12,12-12h20c6.6,0,12,5.4,12,12V52z"/>
	</g>
	<g>
		<path d="M172,52c0,6.6-5.4,12-12,12h-20c-6.6,0-12-5.4-12-12V32c0-6.6,5.4-12,12-12h20c6.6,0,12,5.4,12,12V52z"/>
	</g>
	<g>
		<path d="M64,106c0,6.6-5.4,12-12,12H32c-6.6,0-12-5.4-12-12V86c0-6.6,5.4-12,12-12h20c6.6,0,12,5.4,12,12V106z"/>
	</g>
	<g>
		<path d="M118,106c0,6.6-5.4,12-12,12H86c-6.6,0-12-5.4-12-12V86c0-6.6,5.4-12,12-12h20c6.6,0,12,5.4,12,12V106z"/>
	</g>
	<g style="opacity:0.5;">
		<path d="M172,106c0,6.6-5.4,12-12,12h-20c-6.6,0-12-5.4-12-12V86c0-6.6,5.4-12,12-12h20c6.6,0,12,5.4,12,12V106z"/>
	</g>
	<g>
		<path d="M64,160c0,6.6-5.4,12-12,12H32c-6.6,0-12-5.4-12-12v-20c0-6.6,5.4-12,12-12h20c6.6,0,12,5.4,12,12V160z"/>
	</g>
	<g style="opacity:0.5;">
		<path d="M118,160c0,6.6-5.4,12-12,12H86c-6.6,0-12-5.4-12-12v-20c0-6.6,5.4-12,12-12h20c6.6,0,12,5.4,12,12V160z"/>
	</g>
	<g style="opacity:0.5;">
		<path d="M172,160c0,6.6-5.4,12-12,12h-20c-6.6,0-12-5.4-12-12v-20c0-6.6,5.4-12,12-12h20c6.6,0,12,5.4,12,12V160z"/>
	</g>
</g>
</svg>
