<?xml version="1.0" encoding="UTF-8"?>
<svg version="1.1" xmlns="http://www.w3.org/2000/svg" xmlns:xlink="http://www.w3.org/1999/xlink">
<defs>

</defs>
<symbol id="i-add" xmlns="http://www.w3.org/2000/svg" viewBox="0 0 24 24"><path d="M19 13h-6v6h-2v-6H5v-2h6V5h2v6h6v2z"/><path d="M0 0h24v24H0z" fill="none"/></symbol>
<symbol id="i-close" viewBox="0 0 386.667 386.667" xmlns="http://www.w3.org/2000/svg"><path d="M386.667 45.564L341.103 0l-147.77 147.769L45.564 0 0 45.564l147.769 147.769L0 341.103l45.564 45.564 147.769-147.769 147.769 147.769 45.564-45.564-147.768-147.77z"/></symbol>
<symbol id="i-date" xmlns="http://www.w3.org/2000/svg" viewBox="0 0 512 512"><path d="M448 32h-21.5V0h-84v32H171V0H87v32H64C28.703 32 0 60.719 0 96V448c0 35.281 28.703 64 64 64h384c35.297 0 64-28.719 64-64V96c0-35.281-28.703-64-64-64zm-12.833 427.834h-358V179.167h358v280.667z"/><path d="M256.167 281.6H384.5v127.567H256.167z"/></symbol>
<symbol id="i-delete" viewBox="0 0 515.556 515.556" xmlns="http://www.w3.org/2000/svg"><path d="M64.444 451.111c0 35.526 28.902 64.444 64.444 64.444h257.778c35.542 0 64.444-28.918 64.444-64.444V128.889H64.444zM322.222 32.222V0H193.333v32.222H32.222v64.444h451.111V32.222z"/></symbol>
<symbol id="i-edit" xmlns="http://www.w3.org/2000/svg" viewBox="0 0 24 24"><path d="M3 17.25V21h3.75L17.81 9.94l-3.75-3.75L3 17.25zM20.71 7.04a.996.996 0 000-1.41l-2.34-2.34a.996.996 0 00-1.41 0l-1.83 1.83 3.75 3.75 1.83-1.83z"/><path d="M0 0h24v24H0z" fill="none"/></symbol>
<symbol id="i-meetings" viewBox="0 0 515.556 515.556" xmlns="http://www.w3.org/2000/svg"><path d="M487.977 351.493c7.55-22.334 11.468-45.613 11.468-69.548 0-42.801-12.359-83.645-35.235-118.627-11.775 19.319-28.434 35.04-48.318 45.942C427.944 231.406 435 256.027 435 281.944c0 14.186-2.596 27.868-6.36 41.263-3.253-.332-6.411-.985-9.751-.985-53.305 0-96.667 43.361-96.667 96.667s43.361 96.667 96.667 96.667 96.667-43.362 96.667-96.667c0-26.222-10.571-49.966-27.579-67.396zM281.945 435c-51.596 0-98.875-25.903-127.141-68.27 23.256-17.669 38.529-45.336 38.529-76.73 0-53.305-43.361-96.667-96.667-96.667S0 236.695 0 290c0 51.427 40.47 93.203 91.182 96.112 38.244 69.916 110.962 113.332 190.763 113.332 11.731 0 23.252-1.21 34.641-3.033-13.531-17.806-22.29-39.1-25.058-62.409-3.223.202-6.325.998-9.583.998zM264.064 130.004c13.647 36.856 48.839 63.329 90.381 63.329 53.305 0 96.667-43.361 96.667-96.667S407.75 0 354.445 0c-42.386 0-78.087 27.595-91.097 65.626-66.378 5.76-125.603 41.574-161.91 95.967 23.942.895 46.229 8.138 65.121 20.404 24.702-28.464 59.233-47.43 97.505-51.993z"/></symbol>
<symbol id="i-menu" viewBox="0 0 515.555 515.555" xmlns="http://www.w3.org/2000/svg"><path d="M303.347 18.875c25.167 25.167 25.167 65.971 0 91.138s-65.971 25.167-91.138 0-25.167-65.971 0-91.138c25.166-25.167 65.97-25.167 91.138 0M303.347 212.209c25.167 25.167 25.167 65.971 0 91.138s-65.971 25.167-91.138 0-25.167-65.971 0-91.138c25.166-25.167 65.97-25.167 91.138 0M303.347 405.541c25.167 25.167 25.167 65.971 0 91.138s-65.971 25.167-91.138 0-25.167-65.971 0-91.138c25.166-25.167 65.97-25.167 91.138 0"/></symbol>
<symbol id="i-planner" xmlns="http://www.w3.org/2000/svg" viewBox="0 0 192 192"><path d="M64 52c0 6.6-5.4 12-12 12H32c-6.6 0-12-5.4-12-12V32c0-6.6 5.4-12 12-12h20c6.6 0 12 5.4 12 12v20zM118 52c0 6.6-5.4 12-12 12H86c-6.6 0-12-5.4-12-12V32c0-6.6 5.4-12 12-12h20c6.6 0 12 5.4 12 12v20zM172 52c0 6.6-5.4 12-12 12h-20c-6.6 0-12-5.4-12-12V32c0-6.6 5.4-12 12-12h20c6.6 0 12 5.4 12 12v20zM64 106c0 6.6-5.4 12-12 12H32c-6.6 0-12-5.4-12-12V86c0-6.6 5.4-12 12-12h20c6.6 0 12 5.4 12 12v20zM118 106c0 6.6-5.4 12-12 12H86c-6.6 0-12-5.4-12-12V86c0-6.6 5.4-12 12-12h20c6.6 0 12 5.4 12 12v20z"/><path d="M172 106c0 6.6-5.4 12-12 12h-20c-6.6 0-12-5.4-12-12V86c0-6.6 5.4-12 12-12h20c6.6 0 12 5.4 12 12v20z" opacity=".5"/><path d="M64 160c0 6.6-5.4 12-12 12H32c-6.6 0-12-5.4-12-12v-20c0-6.6 5.4-12 12-12h20c6.6 0 12 5.4 12 12v20z"/><path d="M118 160c0 6.6-5.4 12-12 12H86c-6.6 0-12-5.4-12-12v-20c0-6.6 5.4-12 12-12h20c6.6 0 12 5.4 12 12v20zM172 160c0 6.6-5.4 12-12 12h-20c-6.6 0-12-5.4-12-12v-20c0-6.6 5.4-12 12-12h20c6.6 0 12 5.4 12 12v20z" opacity=".5"/></symbol>
<symbol id="i-save" xmlns="http://www.w3.org/2000/svg" viewBox="0 0 24 24"><path d="M0 0h24v24H0z" fill="none"/><path d="M17 3H5a2 2 0 00-2 2v14a2 2 0 002 2h14c1.1 0 2-.9 2-2V7l-4-4zm-5 16c-1.66 0-3-1.34-3-3s1.34-3 3-3 3 1.34 3 3-1.34 3-3 3zm3-10H5V5h10v4z"/></symbol>
<symbol id="i-time" viewBox="0 0 515.556 515.556" xmlns="http://www.w3.org/2000/svg"><path d="M257.778 0C115.641 0 0 115.641 0 257.778s115.641 257.778 257.778 257.778 257.778-115.641 257.778-257.778S399.914 0 257.778 0zm57.773 361.115l-89.996-89.996V128.888H290v115.547l71.115 71.115-45.564 45.565z"/></symbol>
<symbol id="i-users" viewBox="0 0 515.556 515.556" xmlns="http://www.w3.org/2000/svg"><path d="M486.245 337.232c-44.199-27.886-94.804-43.186-147.101-46.048 12.091 5.66 24.059 11.637 35.408 18.798 27.345 17.228 44.337 48.428 44.337 81.405v91.947h96.667v-91.947c0-21.995-11.233-42.748-29.311-54.155z"/><path d="M357.356 337.232c-97.957-61.801-230.103-61.801-328.029 0C11.234 348.623 0 369.376 0 391.387v91.947h386.667v-91.947c0-22.011-11.234-42.764-29.311-54.155zM289.815 252.441c10.416 3.153 21.165 5.338 32.409 5.338 62.179 0 112.778-50.599 112.778-112.778S384.403 32.222 322.224 32.222c-11.244 0-21.993 2.185-32.409 5.338 29.553 26.562 48.52 64.665 48.52 107.44s-18.966 80.878-48.52 107.441z"/><path d="M273.081 65.254c44.043 44.043 44.043 115.449 0 159.492s-115.449 44.043-159.492 0-44.043-115.449 0-159.492 115.449-44.042 159.492 0"/></symbol>
</svg>